<?xml version="1.0" encoding="UTF-8" standalone="no"?>
<svg viewBox="-1157.3576 -959.9973 2314.7153 1948.5583" xmlns="http://www.w3.org/2000/svg">
  <g fill="rgba(255,255,255,1.0) #FFFFFF" stroke="rgba(0,0,0,1.0) #000000" stroke-width="80.0 1">
    <path d="M 964.4647 0 A 964.4647 964.4647 0 0 0 -964.4647 0 A 964.4647 964.4647 0 0 0 964.4647 0 Z" stroke="#FFFFFF" stroke-width="34.4867" fill="#808080" />
    <path d="M 219.8172 -744.2376 A 1541.6807 1541.6807 0 0 0 19.7577 -395.7993 L -787.5135 -164.3495 L -866.8681 -59.2473 L -106.8659 -108.4797 L -281.1842 441.9229 L -555.4517 550.5356 L -586.6357 606.3254 L -313.8914 660.8797 L -100.8518 826.1812 L -79.2704 765.139 L -162.5676 495.7678 L 119.9171 -6.6095 L 566.1432 634.9955 L 611.0248 470.147 L 254.1336 -282.5887 A 1390.0602 1390.0602 0 0 0 385.5808 -697.2968 A 221.4687 221.4687 0 0 0 380.9569 -757.8715 A 62.79 62.79 0 0 0 280.1456 -797.6174 A 203.1412 203.1412 0 0 0 219.8172 -744.2376 L 219.8172 -744.2376 Z" stroke="#FFFFFF" fill="#FFFFFF" />
  </g>
</svg>
